<svg width="255" height="29" viewBox="0 0 255 29" fill="none" xmlns="http://www.w3.org/2000/svg"><path d="M115.948 27.5508L126.057 0.646118H132.748L124.367 22.9715H129.663L127.972 27.5546H115.948V27.5508ZM130.542 27.5508L134.143 17.8729L136.275 0.646118H142.453L140.322 10.1784H140.654L145.542 0.646118H152.125L141.242 17.985L137.674 27.5508H130.542ZM158.52 27.5508L163.412 15.2358H162.825L156.171 27.5508H151.65L154.335 15.2358H153.819L149.372 27.5508H143.893L153.931 0.646118H160.88L158.086 14.9781H158.602L166.542 0.646118H174.228L164.119 27.5508H158.52ZM185.103 27.5508L195.175 0.646118H201.866L191.79 27.5508H185.103ZM178.816 13.9883L179 13.9509C180.619 13.9509 181.831 13.4766 182.455 11.8256L183.888 7.97833C184.587 6.14434 184.438 4.93788 182.418 4.93788H182.235L178.816 13.9883ZM167.051 27.5508L177.126 0.646118H182.897C188.522 0.646118 191.536 4.71376 189.662 10.324L189.442 10.9852C187.676 16.2257 183.117 18.2053 177.272 18.2053L173.741 27.5508H167.051ZM221.833 27.8795C216.466 27.8795 214.002 24.2862 215.988 18.9374L222.828 0.646118H229.556L221.466 22.1983C221.134 23.0798 221.467 23.6288 222.42 23.6288C223.265 23.6288 223.707 23.1881 224.111 22.0899L232.2 0.646118H238.853L231.28 20.8797C230.397 23.2628 229.148 25.0594 227.641 26.1949C226.171 27.2931 224.223 27.8795 221.833 27.8795ZM113.155 4.56809C112.235 4.56809 111.61 5.11716 111.206 6.1817L105.361 21.6865C105.215 22.1273 105.178 22.3103 105.178 22.5307C105.178 23.0424 105.619 23.4458 106.427 23.4458C107.347 23.4458 108.009 22.9341 108.413 21.8322L114.183 6.39835C114.292 6.14062 114.404 5.73721 114.404 5.51683C114.404 5.00884 113.963 4.56809 113.155 4.56809ZM105.727 27.8795C99.074 27.8795 97.8959 21.7202 100.727 14.5374L101.647 12.1916C104.183 5.74094 107.934 0.31369 113.854 0.31369C120.507 0.31369 121.465 6.5104 118.817 13.6185L117.934 16.0016C115.507 22.5307 111.61 27.8795 105.727 27.8795ZM205.583 27.5508L204.7 18.6797H204.297L201.282 27.5508H194.663L204.772 0.646118H211.462L207.565 9.70027H208.081L214.11 0.646118H221.021L210.25 16.0053L211.832 27.5508H205.583ZM239.773 27.8795C236.022 27.8795 233.266 26.0455 233.266 22.6017C233.266 21.7949 233.449 20.8797 233.816 20.0729L234.515 18.4593H240.473L239.111 22.0899C238.745 23.1881 239.074 23.7745 239.994 23.7745C241.426 23.7745 242.126 22.3103 242.238 20.8797C242.238 19.3408 241.722 18.5714 240.656 15.8559L240.252 14.8287C239.295 12.4456 238.562 10.5033 238.562 8.15762C238.562 3.50356 242.421 0.31369 248.046 0.31369C251.502 0.31369 254.258 2.29335 254.258 5.44586C254.258 6.29002 254.075 7.16779 253.742 8.12027L253.08 10.0626H247.014L248.558 5.81192C248.779 5.11717 248.596 4.41868 247.601 4.41868C246.094 4.41868 245.469 5.69985 245.323 7.31346C245.323 8.74405 245.911 10.649 246.647 12.3L247.089 13.2898C248.009 15.3778 249 17.9812 249 19.8152C249.004 24.727 245.14 27.8795 239.773 27.8795Z" fill="white"></path><path d="M69.3717 6.52541C68.1787 6.52541 67.0156 6.57769 65.8786 6.67107C62.4005 2.82008 54.685 0 45.7429 0C36.8083 0 29.0853 2.81634 25.5997 6.67481C24.4516 6.58143 23.2885 6.52913 22.1104 6.52913C9.95191 6.52913 0 11.3849 0 17.5704C0 23.5654 9.95565 28.4212 22.1104 28.4212C31.0039 28.4212 38.7904 25.829 42.3508 22.105C43.4653 22.1909 44.5948 22.2357 45.7392 22.2357C46.8948 22.2357 48.0243 22.1909 49.1313 22.105C52.6917 25.8327 60.4707 28.4212 69.3717 28.4212C81.5302 28.4212 91.4821 23.5654 91.4821 17.5704C91.4821 11.3849 81.5264 6.52541 69.3717 6.52541ZM69.3717 24.4731C62.0789 24.4731 51.4014 22.4224 51.4014 17.5667C51.4014 14.1527 56.454 11.8369 62.1163 10.8881C62.2285 10.8508 62.2696 10.7761 62.2285 10.6603C61.847 9.59947 61.013 8.7628 60.1004 8.19505C59.9471 8.08299 59.7975 8.04189 59.6068 8.08298C52.6543 8.99437 47.0706 13.3197 47.0706 17.5704C47.0706 17.9439 47.1117 18.3137 47.1865 18.676C46.6928 18.6984 46.2104 18.7097 45.7392 18.7097C45.2754 18.7097 44.793 18.6984 44.2956 18.676V18.6723C44.1198 18.6686 43.9477 18.6574 43.772 18.6499C37.5301 18.2913 29.2499 16.2631 28.1877 11.9564C28.1503 11.8443 28.1129 11.8033 27.997 11.7659C26.5908 11.5754 25.3005 11.5007 23.9317 11.4634C23.741 11.4634 23.6288 11.5754 23.6662 11.7659C24.1412 16.3527 29.8034 19.8676 37.2533 21.399C33.5882 23.5318 27.077 24.4805 22.1104 24.4805C15.0045 24.4805 4.51782 22.4299 4.51782 17.5741C4.51782 12.3374 15.0045 10.2905 22.1104 10.2905C28.6066 10.2905 39.0185 12.0348 40.0433 16.8533C40.0807 17.0437 40.1555 17.1185 40.3462 17.1558C41.6776 17.3836 42.9305 17.4957 44.2208 17.5368C44.333 17.5368 44.4115 17.4621 44.4115 17.3463C44.1572 12.7557 38.2444 8.99437 30.4915 7.38076C34.0033 4.84456 40.6978 3.5335 45.7429 3.5335C52.6019 3.5335 62.5351 5.94645 63.3168 10.608C63.3205 10.6416 63.3317 10.6752 63.3355 10.7051C63.3355 10.7051 63.3355 10.7051 63.3392 10.7051C63.3617 10.8657 63.3766 11.0301 63.3766 11.1981C63.3766 14.5748 58.7055 16.8159 52.8899 18.1045C52.7366 18.1419 52.6992 18.2166 52.7777 18.3324C53.3088 19.3185 54.1465 20.1141 55.3994 20.7976C55.6275 20.9097 55.7808 20.9508 55.9678 20.9097C63.1485 19.3147 67.8608 15.333 67.8608 11.1944C67.8608 10.8993 67.8309 10.6042 67.7822 10.3129C68.3283 10.2942 68.8631 10.283 69.3829 10.283C76.4888 10.283 86.9717 12.3337 86.9717 17.5667C86.9605 22.4262 76.4738 24.4731 69.3717 24.4731Z" fill="white"></path></svg>